<svg width="40" height="17" viewBox="0 0 40 17" fill="none" xmlns="http://www.w3.org/2000/svg">
<path d="M7.63074 2.18358C7.17387 2.72562 6.4431 3.15207 5.71216 3.09113C5.62089 2.36019 5.98022 1.58061 6.40048 1.10552C6.85726 0.551361 7.65515 0.155424 8.30685 0.125C8.3799 0.880178 8.08143 1.62934 7.63074 2.18358ZM8.29465 3.23105C7.23489 3.1702 6.32742 3.83411 5.82793 3.83411C5.31631 3.83411 4.54885 3.26156 3.70841 3.27978C2.61823 3.29808 1.6072 3.91326 1.05296 4.89378C-0.0920515 6.86117 0.754483 9.76637 1.86297 11.3683C2.40501 12.16 3.05061 13.0312 3.90341 13.0006C4.71351 12.97 5.03012 12.4767 6.00462 12.4767C6.98523 12.4767 7.27159 13.0006 8.12422 12.9882C9.00728 12.9699 9.56153 12.1965 10.1037 11.4047C10.7187 10.5032 10.9746 9.63239 10.9868 9.58375C10.9686 9.56519 9.28135 8.91975 9.26313 6.97075C9.24491 5.33845 10.597 4.56496 10.6579 4.51623C9.89644 3.38334 8.70881 3.26156 8.29465 3.23105ZM14.4096 1.02628V12.8971H16.2552V8.8406H18.807C21.1398 8.8406 22.7721 7.2388 22.7721 4.92437C22.7721 2.60994 21.1642 1.02628 18.8682 1.02628H14.4096ZM16.2552 2.57943H18.3808C19.9827 2.57943 20.8963 3.43215 20.8963 4.93047C20.8963 6.42871 19.9827 7.29364 18.3748 7.29364H16.2552L16.2552 2.57943ZM26.1342 12.9883C27.2915 12.9883 28.3633 12.4038 28.8507 11.4718H28.8872V12.897H30.5926V6.98897C30.5926 5.27751 29.2222 4.16911 27.1148 4.16911C25.1597 4.16911 23.7101 5.28972 23.6552 6.82456H25.318C25.458 6.09362 26.1342 5.61252 27.0601 5.61252C28.1868 5.61252 28.8202 6.13625 28.8202 7.10474V7.76254L26.5179 7.90254C24.3802 8.03042 23.2229 8.90738 23.2229 10.4302C23.229 11.9652 24.4227 12.9883 26.1342 12.9883ZM26.6337 11.5815C25.653 11.5815 25.0256 11.1065 25.0256 10.3876C25.0256 9.63841 25.6286 9.20611 26.7797 9.13899L28.8261 9.01103V9.68112C28.8262 10.7897 27.8823 11.5815 26.6337 11.5815ZM32.8765 16.125C34.6731 16.125 35.5198 15.4369 36.2567 13.3598L39.4909 4.28479H37.615L35.4468 11.2951H35.4103L33.2418 4.28479H31.3172L34.4357 12.9274L34.2651 13.4512C33.9848 14.3404 33.5281 14.6877 32.7119 14.6877C32.5658 14.6877 32.2857 14.6695 32.1699 14.6571V16.0825C32.2796 16.1069 32.7364 16.125 32.8765 16.125Z" fill="white"/>
</svg>
