<svg width="25" height="19" viewBox="0 0 25 19" fill="none" xmlns="http://www.w3.org/2000/svg">
<g clip-path="url(#clip0_9069_32)">
<path d="M24.3025 0.738281H1.54297V5.19236H24.3025V0.738281Z" fill="#034991"/>
<path d="M24.3025 5.62305H1.54297V12.6277H24.3025V5.62305Z" fill="#034991"/>
<path d="M24.3025 13.0625H1.54297V17.5166H24.3025V13.0625Z" fill="#034991"/>
<path d="M21.3603 4.12305H20.6914V4.53214H21.3603V4.12305Z" fill="white"/>
<path d="M20.5009 4.12305H19.832V4.53214H20.5009V4.12305Z" fill="white"/>
<path d="M10.4557 3.35128H10.045V2.77521H9.21949V3.35128H3.25442L3.17822 3.201L3.74551 2.47466V1.95703H2.93267L2.03516 3.10499L2.54742 4.18198H11.2812V2.77521H10.4557V3.35128Z" fill="white"/>
<path d="M11.2197 2.01953H10.5508V2.42862H11.2197V2.01953Z" fill="white"/>
<path d="M4.93843 2.14062H4.26953V2.54972H4.93843V2.14062Z" fill="white"/>
<path d="M5.80562 2.14062H5.13672V2.54972H5.80562V2.14062Z" fill="white"/>
<path d="M23.2806 2.6082H20.8421L20.4695 2.30347H23.0604L22.7895 1.83594H19.5339L19.4831 2.00291L20.6007 2.92128H22.527V3.1634H20.4483L19.7413 2.58315H18.3316V3.8146H16.0116V3.3095H17.9675V2.58315H14.8008V4.40737H19.1656V3.43891L19.6609 3.84382H23.3145L23.8267 3.3262V3.15922L23.2806 2.6082Z" fill="white"/>
<path d="M13.6429 3H12.0977V3.66373H13.6429V3Z" fill="white"/>
<path d="M21.2877 11.9344L17.1092 8.83701L21.2115 6.35742H13.8621L10.2635 8.53228V6.35742H5.13672V11.9344H10.2635V9.03321L13.553 11.9344H21.2877Z" fill="#FFED00"/>
<path d="M4.11328 16.9145V14.151H4.84992V14.4808C4.95576 14.3472 5.07853 14.2471 5.22247 14.1803C5.36641 14.1135 5.52305 14.0801 5.70086 14.0801C6.00991 14.0801 6.24276 14.1594 6.39516 14.318C6.54757 14.4766 6.62801 14.7146 6.62801 15.0318V16.9145H5.87867V15.2447C5.87867 15.0444 5.8448 14.9066 5.77707 14.8189C5.70933 14.7355 5.59926 14.6937 5.44685 14.6937C5.26904 14.6937 5.12933 14.7438 5.02773 14.8482C4.92612 14.9525 4.87109 15.0945 4.87109 15.274V16.9145H4.11328Z" fill="white"/>
<path d="M13.3943 16.0405H14.1437C14.0675 16.3327 13.9151 16.5623 13.6865 16.7251C13.4578 16.8921 13.1784 16.9714 12.8482 16.9714C12.4418 16.9714 12.12 16.8378 11.883 16.5664C11.6459 16.2993 11.5273 15.9319 11.5273 15.4728C11.5273 15.0219 11.6459 14.6629 11.8787 14.4041C12.1116 14.1411 12.4333 14.0117 12.8397 14.0117C13.2673 14.0117 13.6018 14.1411 13.8346 14.3958C14.0675 14.6546 14.186 15.0177 14.186 15.4936C14.186 15.5479 14.186 15.5855 14.186 15.6105C14.186 15.6356 14.1818 15.6606 14.1775 15.6857H12.3063C12.3148 15.9027 12.3698 16.0655 12.4672 16.1782C12.5646 16.2868 12.7043 16.3452 12.8863 16.3452C13.0133 16.3452 13.1192 16.3202 13.2038 16.2701C13.28 16.2241 13.3435 16.1448 13.3943 16.0405ZM12.3021 15.2056H13.407C13.3986 15.0177 13.3478 14.8758 13.2546 14.7798C13.1615 14.6838 13.026 14.6337 12.8524 14.6337C12.6873 14.6337 12.5603 14.6838 12.4672 14.7798C12.3698 14.88 12.3148 15.0219 12.3021 15.2056Z" fill="white"/>
<path d="M21.6275 17.2564C21.5598 17.2564 21.4751 17.2606 21.382 17.2648C21.2846 17.2689 21.2253 17.2731 21.1999 17.2731C20.9121 17.2731 20.7173 17.2188 20.6115 17.1145C20.5056 17.0101 20.4548 16.8014 20.4548 16.4883V14.9939H20.0823V14.4763H20.4548V13.7207H21.1957V14.4763H21.6275V14.9939H21.1957V16.5259C21.1957 16.5969 21.2126 16.647 21.2465 16.6678C21.2804 16.6887 21.3481 16.7012 21.4497 16.7012H21.6318V17.2564H21.6275Z" fill="white"/>
</g>
<defs>
<clipPath id="clip0_9069_32">
<rect width="24" height="18" fill="white" transform="translate(0.917969 0.125)"/>
</clipPath>
</defs>
</svg>
