<svg width="55" height="19" viewBox="0 0 55 19" fill="none" xmlns="http://www.w3.org/2000/svg">
<path d="M23.3247 10.5039H0.490845V18.1107H23.3247V10.5039Z" fill="#84B740"/>
<path d="M23.3247 0.125H0.490845V7.73856H23.3247V0.125Z" fill="#259BD6"/>
<path d="M46.1605 16.5652L46.0588 16.5855C45.7063 16.6533 45.5775 16.6804 45.3198 16.6804C44.7232 16.6804 44.0181 16.3753 44.0181 14.938C44.0181 14.1991 44.1402 13.216 45.252 13.216H45.2588C45.4487 13.2296 45.6656 13.2499 46.0724 13.3719L46.1605 13.3991V16.5652ZM46.3436 9.39906L46.1605 9.43296V12.0906L45.9978 12.0431L45.9504 12.0296C45.7673 11.9753 45.347 11.8533 44.9402 11.8533C42.7165 11.8533 42.2487 13.5347 42.2487 14.9448C42.2487 16.877 43.3334 17.9889 45.2249 17.9889C46.0249 17.9889 46.6148 17.9075 47.2114 17.7109C47.7605 17.5347 47.9571 17.2838 47.9571 16.7482V9.12109C47.4283 9.21601 46.8792 9.31092 46.3436 9.39906Z" fill="white"/>
<path d="M52.7667 16.6135L52.6718 16.6407L52.3328 16.7288C52.0141 16.8101 51.7294 16.8576 51.5124 16.8576C50.9904 16.8576 50.6785 16.6 50.6785 16.1593C50.6785 15.8746 50.8073 15.3932 51.6616 15.3932H52.7667V16.6135ZM51.987 11.8203C51.3023 11.8203 50.5972 11.9423 49.7226 12.2135L49.1531 12.383L49.3429 13.6712L49.8989 13.4881C50.4819 13.2983 51.2073 13.1762 51.7497 13.1762C51.9938 13.1762 52.7395 13.1762 52.7395 13.983V14.3356H51.7023C49.8107 14.3356 48.9362 14.939 48.9362 16.2339C48.9362 17.339 49.7429 18.0034 51.0989 18.0034C51.5192 18.0034 52.1023 17.922 52.604 17.8L52.6311 17.7932L52.6582 17.8L52.8277 17.8271C53.3565 17.922 53.9056 18.0169 54.4412 18.1186V13.8881C54.4412 12.5186 53.6141 11.8203 51.987 11.8203Z" fill="white"/>
<path d="M39.5948 16.6135L39.4999 16.6407L39.1609 16.7288C38.8423 16.8101 38.5643 16.8576 38.3406 16.8576C37.8185 16.8576 37.5067 16.6 37.5067 16.1593C37.5067 15.8745 37.6355 15.3932 38.4829 15.3932H39.588L39.5948 16.6135ZM38.8219 11.8203C38.1304 11.8203 37.4321 11.9423 36.5575 12.2135L35.988 12.383L36.1778 13.6712L36.7338 13.4881C37.3168 13.2983 38.0423 13.1762 38.5846 13.1762C38.8287 13.1762 39.5745 13.1762 39.5745 13.983V14.3356H38.5372C36.6456 14.3356 35.7643 14.939 35.7643 16.2339C35.7643 17.339 36.5711 18.0034 37.9338 18.0034C38.3541 18.0034 38.9372 17.922 39.4389 17.8L39.466 17.7932L39.4931 17.8L39.6558 17.8271C40.1914 17.922 40.7338 18.0169 41.2694 18.1254V13.8949C41.2761 12.5118 40.449 11.8203 38.8219 11.8203Z" fill="white"/>
<path d="M32.4595 11.8349C31.5985 11.8349 30.8867 12.1196 30.6223 12.2417L30.5545 12.2756L30.4934 12.2281C30.1273 11.9637 29.5917 11.8281 28.846 11.8281C28.1884 11.8281 27.5714 11.923 26.9002 12.1196C26.3239 12.2959 26.1002 12.5739 26.1002 13.0959V17.9298H27.9036V13.462L27.9917 13.4349C28.3578 13.3129 28.5748 13.2925 28.785 13.2925C29.307 13.2925 29.5714 13.5705 29.5714 14.1129V17.9366H31.3477V14.0383C31.3477 13.8078 31.3002 13.6722 31.2934 13.6451L31.2324 13.5298L31.3545 13.4756C31.6256 13.3535 31.9239 13.2925 32.2358 13.2925C32.5951 13.2925 33.0223 13.4349 33.0223 14.1129V17.9366H34.7917V13.9366C34.7917 12.5196 34.0324 11.8349 32.4595 11.8349Z" fill="white"/>
<path d="M51.44 5.08771C51.1756 5.08771 50.7349 5.06059 50.3892 4.9928L50.2875 4.97246V2.36229C50.2875 2.14534 50.2468 2.00975 50.24 1.98941L50.1858 1.88093L50.301 1.83347C50.3281 1.81992 50.3553 1.81314 50.3892 1.79958L50.4095 1.78602C50.4502 1.77246 50.4908 1.7589 50.5315 1.74534C50.5519 1.73856 50.5654 1.73178 50.579 1.73178C50.979 1.62331 51.3451 1.63686 51.5078 1.62331H51.5146C52.6197 1.62331 52.7485 2.60636 52.7485 3.34534C52.7417 4.78263 52.0298 5.08771 51.44 5.08771ZM51.4332 0.125C51.4197 0.125 51.3993 0.125 51.3858 0.125C50.3485 0.125 49.2841 0.409746 48.9044 0.965678C48.701 1.23686 48.5858 1.57585 48.579 1.97585V4.66737C48.579 4.89788 48.5315 4.98602 48.5247 5.00636L48.4637 5.12161H45.1892V3.25042H45.1824C45.1417 1.27754 43.9756 0.192797 42.2875 0.192797H42.0908H40.64C40.5722 0.674153 40.518 1.01314 40.4502 1.49449H42.0908C42.9519 1.49449 43.4061 2.22669 43.4061 3.35212V5.23686L43.2908 5.17585C43.2705 5.16907 43.1281 5.12161 42.9044 5.12161H40.0705C40.0163 5.48093 39.9485 5.94873 39.8739 6.41653H48.5858C48.8841 6.35551 49.2298 6.30127 49.5281 6.25381C49.9688 6.47076 50.7892 6.58602 51.3519 6.58602C53.2434 6.58602 54.4705 5.31822 54.4705 3.36568C54.4637 1.43347 53.2773 0.165678 51.4332 0.125Z" fill="white"/>
<path d="M36.1612 7.20939H36.2426C38.1341 7.20939 39.0155 6.58566 39.0155 5.04668C39.0155 3.94159 38.2087 3.06024 36.8528 3.06024H35.1104C34.5884 3.06024 34.2765 2.76193 34.2765 2.26024C34.2765 1.92125 34.4053 1.50091 35.2595 1.50091H39.0697C39.1511 1.006 39.1917 0.694134 39.2663 0.199219H35.307C33.4629 0.199219 32.5341 0.9721 32.5341 2.26024C32.5341 3.53481 33.3409 4.19922 34.6968 4.19922H36.4392C36.9612 4.19922 37.2731 4.61278 37.2731 5.04668C37.2731 5.33142 37.1443 5.92125 36.2968 5.92125H36.0053L30.4256 5.90769H29.4087C28.5477 5.90769 27.9443 5.41956 27.9443 4.28735V3.50769C27.9443 2.32803 28.4121 1.59583 29.4087 1.59583H31.0629C31.1375 1.09413 31.185 0.77549 31.2528 0.300914H29.1917H28.9951C27.307 0.300914 26.1409 1.43312 26.1002 3.406V3.48057V4.28735C26.1409 6.26024 27.307 7.20261 28.9951 7.20261H29.1917H30.6426L33.6663 7.20939H35.4697H36.1612Z" fill="white"/>
</svg>
