<svg width="32" height="20" viewBox="0 0 32 20" fill="none" xmlns="http://www.w3.org/2000/svg">
<path d="M20.3391 2.69727H12.0718V17.5539H20.3391V2.69727Z" fill="#FF5F00"/>
<path d="M12.5965 10.1251C12.5952 8.69434 12.9194 7.282 13.5446 5.99502C14.1698 4.70805 15.0796 3.58019 16.2052 2.69683C14.8114 1.60124 13.1374 0.919917 11.3747 0.73072C9.61192 0.541523 7.83151 0.852084 6.23692 1.62692C4.64234 2.40175 3.29792 3.6096 2.35734 5.11239C1.41676 6.61517 0.917969 8.35227 0.917969 10.1251C0.917969 11.898 1.41676 13.6351 2.35734 15.1379C3.29792 16.6407 4.64234 17.8485 6.23692 18.6234C7.83151 19.3982 9.61192 19.7088 11.3747 19.5196C13.1374 19.3304 14.8114 18.649 16.2052 17.5535C15.0796 16.6701 14.1698 15.5422 13.5446 14.2553C12.9194 12.9683 12.5952 11.5559 12.5965 10.1251Z" fill="#EB001B"/>
<path d="M31.4923 10.1251C31.4924 11.898 30.9936 13.6351 30.0531 15.1379C29.1126 16.6407 27.7682 17.8485 26.1737 18.6233C24.5791 19.3982 22.7987 19.7088 21.036 19.5196C19.2733 19.3304 17.5994 18.649 16.2056 17.5535C17.3301 16.6692 18.2392 15.5412 18.8644 14.2544C19.4895 12.9676 19.8143 11.5557 19.8143 10.1251C19.8143 8.69457 19.4895 7.28266 18.8644 5.9959C18.2392 4.70913 17.3301 3.58109 16.2056 2.69682C17.5994 1.60124 19.2733 0.919912 21.036 0.730718C22.7987 0.541523 24.5791 0.852097 26.1737 1.62694C27.7682 2.40178 29.1126 3.60963 30.0531 5.11242C30.9936 6.61521 31.4924 8.3523 31.4923 10.1251Z" fill="#F79E1B"/>
<path d="M30.5906 15.98V15.6759H30.7132V15.6139H30.4009V15.6759H30.5236V15.98H30.5906ZM31.197 15.98V15.6133H31.1012L30.9911 15.8655L30.881 15.6133H30.7852V15.98H30.8528V15.7034L30.956 15.9419H31.0262L31.1294 15.7028V15.98H31.197Z" fill="#F79E1B"/>
</svg>
