<svg width="17" height="21" viewBox="0 0 17 21" fill="none" xmlns="http://www.w3.org/2000/svg">
<g clip-path="url(#clip0_9069_27)">
<path d="M6.90165 4.05078C6.76266 4.05077 6.62823 4.10037 6.52255 4.19066C6.41688 4.28094 6.34689 4.40598 6.3252 4.54326L5.36712 10.6183L4.48686 16.2004L4.48633 16.2051L4.48739 16.2004L5.36766 10.6183C5.41241 10.3345 5.65668 10.1258 5.94379 10.1258H8.75051C11.5752 10.1258 13.9727 8.06495 14.4105 5.27237C14.4439 5.0602 14.4617 4.85004 14.4658 4.64266V4.64234H14.4655C13.7476 4.26572 12.9047 4.05078 11.981 4.05078H6.90165Z" fill="#001C64"/>
<path d="M14.4682 4.64062C14.4643 4.84801 14.4462 5.05838 14.413 5.27055C13.9751 8.06314 11.5776 10.124 8.75296 10.124H5.94623C5.65912 10.124 5.41485 10.3327 5.37009 10.6164L4.48983 16.1986L3.9374 19.7009C3.92676 19.7685 3.9309 19.8377 3.94954 19.9036C3.96818 19.9695 4.00087 20.0305 4.04537 20.0826C4.08986 20.1346 4.14511 20.1764 4.20731 20.2051C4.2695 20.2338 4.33716 20.2486 4.40564 20.2486H7.45218C7.59117 20.2486 7.7256 20.199 7.83128 20.1087C7.93695 20.0185 8.00694 19.8934 8.02864 19.7561L8.83119 14.6664C8.87616 14.3827 9.12054 14.1736 9.40766 14.1736H11.2016C14.0262 14.1736 16.4234 12.1129 16.8612 9.32055C17.1721 7.33818 16.1744 5.53481 14.4682 4.64062Z" fill="#0070E0"/>
<path d="M3.44353 0C3.3045 4.33144e-06 3.17002 0.0496505 3.06434 0.139998C2.95865 0.230345 2.8887 0.355458 2.86707 0.492804L0.476511 15.6519C0.465819 15.7196 0.469925 15.7888 0.488539 15.8547C0.507154 15.9206 0.539838 15.9817 0.584341 16.0338C0.628844 16.0859 0.684112 16.1278 0.746333 16.1564C0.808553 16.1851 0.876249 16.2 0.944761 16.2H4.48994L5.37021 10.6178L6.32828 4.5428C6.34998 4.40551 6.41996 4.28047 6.52564 4.19019C6.63131 4.09991 6.76574 4.05031 6.90474 4.05031H11.9839C12.9078 4.05031 13.7507 4.26557 14.4687 4.64166C14.5176 2.0993 12.4197 0 9.5351 0H3.44353Z" fill="#003087"/>
</g>
<defs>
<clipPath id="clip0_9069_27">
<rect width="16.4474" height="20.25" fill="white" transform="translate(0.470581)"/>
</clipPath>
</defs>
</svg>
