<svg width="111" height="20" viewBox="0 0 111 20" fill="none" xmlns="http://www.w3.org/2000/svg">
<path d="M24.6484 18.1658C24.3829 18.3445 24.0552 18.5585 23.6652 18.8078C23.3162 19.0353 22.9446 19.2343 22.555 19.4023C22.0735 19.5957 21.5687 19.7401 21.0503 19.8325C20.487 19.9294 19.9141 19.976 19.3403 19.9715C17.9892 20.007 16.6751 19.5773 15.6738 18.7725C15.1914 18.3868 14.8095 17.9128 14.5544 17.3833C14.2993 16.8538 14.1772 16.2814 14.1965 15.7059C14.1529 14.8446 14.4139 13.9927 14.9432 13.2693C15.487 12.6082 16.2254 12.0923 17.0777 11.7779C18.1598 11.3757 19.3023 11.1156 20.4691 11.0058C21.8199 10.8521 23.2196 10.7392 24.6683 10.6672V10.5933C24.6977 10.2699 24.6135 9.9464 24.4272 9.66714C24.2409 9.38789 23.9617 9.16656 23.6279 9.03352C22.6522 8.70137 21.6087 8.55443 20.565 8.60222C19.6838 8.61135 18.8093 8.73892 17.9713 8.98057C17.0515 9.23538 16.3894 9.43173 15.9874 9.56851H15.5394V6.28579C16.0596 6.16446 16.9084 6.02106 18.077 5.8567C19.2409 5.69097 20.4179 5.60761 21.5967 5.60741C23.7002 5.46228 25.8062 5.85872 27.6615 6.74908C28.2927 7.15772 28.7956 7.70261 29.1224 8.33199C29.4491 8.96137 29.5889 9.65433 29.5284 10.3451V19.6108H24.6484V18.1658ZM24.6484 16.0479V13.2196C23.9846 13.2689 23.264 13.3358 22.4866 13.4204C21.8912 13.4729 21.3023 13.5722 20.7267 13.7171C20.2959 13.8204 19.9056 14.0273 19.5992 14.315C19.3271 14.6034 19.1876 14.972 19.2084 15.3475C19.2019 15.5798 19.2295 15.8119 19.2905 16.038C19.3667 16.2399 19.5098 16.4167 19.7012 16.5454C19.9189 16.7094 20.1735 16.8304 20.448 16.9006C20.8968 16.9911 21.3571 17.0282 21.817 17.0109C22.3293 17.0064 22.836 16.9162 23.3105 16.745C23.797 16.5801 24.2492 16.3445 24.6484 16.0479Z" fill="white"/>
<path d="M46.9785 19.6076H42.0375V18.1935C41.3151 18.7339 40.5159 19.1882 39.6604 19.5447C38.8527 19.8475 37.982 19.9959 37.1053 19.9804C36.2399 20.0033 35.381 19.8412 34.6012 19.5079C33.8213 19.1746 33.1435 18.6799 32.6248 18.0655C31.4239 16.5611 30.8318 14.7411 30.9446 12.901C30.9239 11.8547 31.1162 10.8137 31.5121 9.82786C31.8579 8.98179 32.384 8.2025 33.0616 7.53239C33.6881 6.92104 34.4578 6.43841 35.3168 6.11826C36.1521 5.79226 37.0538 5.62109 37.9665 5.61526C38.7302 5.59644 39.4925 5.68429 40.2254 5.87559C40.8449 6.06048 41.4498 6.28158 42.0363 6.53743V0.744141H46.9785V19.6076ZM42.04 15.8572V9.17044C41.6899 9.0393 41.3235 8.94525 40.9485 8.89026C40.6 8.83595 40.247 8.80754 39.8931 8.80532C39.3473 8.77034 38.7999 8.84944 38.2949 9.03624C37.79 9.22304 37.3415 9.51233 36.9858 9.88081C36.2895 10.7467 35.9478 11.7975 36.0175 12.8591C35.9249 13.8779 36.1975 14.8967 36.7966 15.7701C37.1002 16.0874 37.4856 16.3353 37.9202 16.4927C38.3547 16.6502 38.8257 16.7125 39.2932 16.6746C39.7761 16.6699 40.2549 16.5953 40.7108 16.454C41.1839 16.3158 41.6311 16.1158 42.0375 15.8605L42.04 15.8572Z" fill="white"/>
<path d="M58.7502 18.1658C58.4863 18.3445 58.1582 18.5585 57.7657 18.8078C57.4177 19.0355 57.0469 19.2345 56.658 19.4024C56.1763 19.5955 55.6716 19.7398 55.1533 19.8326C54.59 19.9294 54.0171 19.9759 53.4433 19.9716C52.0925 20.0075 50.7786 19.5777 49.778 18.7725C49.2957 18.3869 48.9137 17.9129 48.6586 17.3834C48.4035 16.8539 48.2814 16.2815 48.3007 15.706C48.2571 14.8447 48.5182 13.9928 49.0475 13.2694C49.591 12.6084 50.3289 12.0926 51.1807 11.778C52.2634 11.3762 53.4062 11.1161 54.5734 11.0059C55.9225 10.8522 57.3222 10.7393 58.7726 10.6672V10.5933C58.8019 10.2701 58.7177 9.94678 58.5317 9.66757C58.3457 9.38837 58.0668 9.16694 57.7333 9.0336C56.7573 8.70129 55.7134 8.55435 54.6692 8.6023C53.7855 8.61312 52.9087 8.74331 52.0693 8.98837C51.1475 9.24355 50.4862 9.43952 50.0854 9.5763H49.6399V6.28587C50.1593 6.16379 51.0052 6.02076 52.1776 5.85678C53.3415 5.69108 54.5184 5.60772 55.6972 5.60748C57.8011 5.46214 59.9076 5.85859 61.7633 6.74915C62.3945 7.1578 62.8974 7.70268 63.2241 8.33206C63.5509 8.96144 63.6906 9.65441 63.6301 10.3451V19.6109H58.7502V18.1658ZM58.7502 16.048V13.2197C58.0864 13.269 57.3662 13.3359 56.5896 13.4205C55.9942 13.473 55.4053 13.5723 54.8298 13.7172C54.398 13.8202 54.0069 14.0271 53.6997 14.3151C53.4294 14.6043 53.2905 14.9724 53.3101 15.3475C53.3039 15.5799 53.332 15.8121 53.3935 16.038C53.4679 16.2402 53.6103 16.4173 53.8017 16.5455C54.0197 16.709 54.2742 16.83 54.5485 16.9006C54.9974 16.9905 55.4577 17.0276 55.9175 17.0109C56.4298 17.0067 56.9366 16.9165 57.411 16.7451C57.898 16.5803 58.3506 16.3447 58.7502 16.048Z" fill="white"/>
<path d="M76.5395 10.1535H76.1026C75.7732 10.0688 75.4335 10.0199 75.0908 10.0079C74.6216 9.9748 74.2407 9.95825 73.9308 9.95825C73.3098 9.95415 72.6895 9.99621 72.0764 10.084C71.4862 10.1783 70.9061 10.3175 70.3427 10.4999V19.6167H65.4055V5.99495H70.3427V7.9937C71.1758 7.31181 72.1304 6.75683 73.1679 6.35124C73.8708 6.09825 74.6198 5.9607 75.3783 5.94531C75.5525 5.94531 75.7517 5.94531 75.9645 5.95745C76.1773 5.96958 76.3752 5.9773 76.5382 5.99385L76.5395 10.1535Z" fill="white"/>
<path d="M87.1836 18.1656C86.919 18.3443 86.5904 18.5583 86.1979 18.8076C85.8498 19.035 85.479 19.234 85.0903 19.4021C84.6089 19.5951 84.1046 19.7394 83.5868 19.8323C83.0214 19.9292 82.4464 19.9758 81.8706 19.9713C80.5196 20.0069 79.2056 19.5767 78.2053 18.7712C77.7229 18.3855 77.341 17.9115 77.0859 17.382C76.8308 16.8525 76.7087 16.2801 76.728 15.7046C76.686 14.8425 76.9497 13.9904 77.4822 13.268C78.0264 12.6077 78.7641 12.092 79.6154 11.7766C80.6976 11.3748 81.8401 11.1147 83.0068 11.0045C84.3568 10.8508 85.7561 10.7379 87.2048 10.6659V10.5919C87.2342 10.2686 87.1499 9.94509 86.9636 9.66584C86.7774 9.38659 86.4982 9.16526 86.1643 9.03222C85.1891 8.70021 84.146 8.55328 83.1027 8.60092C82.2192 8.61091 81.3425 8.73998 80.5028 8.98368C79.581 9.23886 78.9201 9.43483 78.5202 9.57161H78.0684V6.28559C78.5878 6.16352 79.4337 6.02049 80.6061 5.8565C81.7696 5.69084 82.9461 5.60748 84.1245 5.60721C86.2286 5.46254 88.3351 5.85976 90.1905 6.75108C90.8222 7.15936 91.3254 7.70419 91.6522 8.33366C91.979 8.96313 92.1185 9.65628 92.0574 10.3471V19.6128H87.1824L87.1836 18.1656ZM87.1836 16.0477V13.2194C86.5199 13.2687 85.7993 13.3356 85.0218 13.4202C84.4264 13.4727 83.8375 13.572 83.262 13.7169C82.8307 13.8202 82.4401 14.0271 82.1332 14.3148C81.8617 14.6034 81.7226 14.972 81.7436 15.3473C81.7367 15.5796 81.7643 15.8118 81.8257 16.0378C81.9012 16.24 82.0445 16.417 82.2365 16.5452C82.4537 16.7097 82.7084 16.8308 82.9832 16.9004C83.432 16.9906 83.8924 17.0277 84.3522 17.0107C84.8645 17.0062 85.3712 16.916 85.8457 16.7448C86.3322 16.5798 86.7844 16.3442 87.1836 16.0477Z" fill="white"/>
<path d="M110.012 12.612C110.104 14.5177 109.39 16.3853 108.011 17.8493C107.402 18.4957 106.638 19.0131 105.774 19.3633C104.91 19.7136 103.968 19.8879 103.019 19.8734C102.258 19.8837 101.498 19.8021 100.762 19.6308C100.115 19.4695 99.4956 19.2329 98.919 18.927L98.7124 19.6065H93.983V0.744141H98.9203V7.41215C99.6342 6.90346 100.411 6.46862 101.236 6.11606C102.092 5.77238 103.023 5.60241 103.962 5.61857C104.824 5.57911 105.683 5.72821 106.465 6.05274C107.246 6.37727 107.925 6.86724 108.442 7.47944C109.578 8.99481 110.129 10.7957 110.012 12.612ZM104.937 12.7046C105 11.7336 104.76 10.7659 104.242 9.90838C103.962 9.5641 103.585 9.29187 103.147 9.11956C102.71 8.94726 102.229 8.88106 101.753 8.92776C101.268 8.93053 100.786 8.99365 100.322 9.11528C99.8283 9.24099 99.3553 9.42227 98.914 9.65468V16.4815C99.241 16.5876 99.5792 16.6644 99.9234 16.711C100.303 16.7543 100.686 16.7746 101.07 16.7716C101.61 16.809 102.152 16.7368 102.656 16.5606C103.16 16.3844 103.611 16.1088 103.977 15.7546C104.686 14.8672 105.025 13.7891 104.937 12.7046Z" fill="white"/>
<path d="M12.9946 19.5452C12.3719 19.6852 11.7401 19.7917 11.1028 19.8639C10.2913 19.9487 9.47442 19.9878 8.65726 19.9809C6.95131 20.0963 5.25268 19.6864 3.84822 18.8205C3.26925 18.3058 2.82749 17.6828 2.55529 16.9973C2.28309 16.3117 2.18735 15.5809 2.27508 14.8583V7.69938H0V4.37254H2.27508V0H7.82713V4.37695H12.9946V7.70379H7.82713V13.1386C7.82713 13.6769 7.8321 14.1457 7.84206 14.545C7.84421 14.9139 7.92617 15.279 8.08351 15.6205C8.22992 15.9427 8.49775 16.2101 8.84145 16.3772C9.33504 16.5896 9.88176 16.6864 10.4295 16.6585C10.8115 16.6445 11.1902 16.5893 11.5571 16.4941C11.8929 16.4258 12.2192 16.3252 12.5304 16.1941H12.9896L12.9946 19.5452Z" fill="white"/>
</svg>
