<svg width="24" height="25" viewBox="0 0 24 25" fill="none" xmlns="http://www.w3.org/2000/svg">
<g clip-path="url(#clip0_9069_92)">
<path d="M17.507 14.7232L17.498 14.7982C15.299 13.7022 15.069 13.5562 14.785 13.9822C14.588 14.2772 14.014 14.9462 13.841 15.1442C13.666 15.3392 13.492 15.3542 13.195 15.2192C12.895 15.0692 11.932 14.7542 10.792 13.7342C9.90402 12.9392 9.30802 11.9642 9.13202 11.6642C8.83902 11.1582 9.45202 11.0862 10.01 10.0302C10.11 9.82019 10.059 9.65519 9.98502 9.50619C9.91002 9.35619 9.31302 7.88619 9.06302 7.30019C8.82302 6.71618 8.57602 6.79019 8.39102 6.79019C7.81502 6.74019 7.39402 6.74818 7.02302 7.13419C5.40902 8.90819 5.81602 10.7382 7.19702 12.6842C9.91102 16.2362 11.357 16.8902 14.001 17.7982C14.715 18.0252 15.366 17.9932 15.881 17.9192C16.455 17.8282 17.648 17.1982 17.897 16.4932C18.152 15.7882 18.152 15.2032 18.077 15.0682C18.003 14.9332 17.807 14.8582 17.507 14.7232Z" fill="white"/>
<path d="M20.52 3.86447C12.831 -3.56853 0.106 1.82247 0.101 12.3085C0.101 14.4045 0.65 16.4485 1.696 18.2535L0 24.4155L6.335 22.7635C14.24 27.0335 23.996 21.3635 24 12.3145C24 9.13847 22.76 6.14947 20.505 3.90347L20.52 3.86447ZM22.002 12.2815C21.996 19.9145 13.617 24.6815 6.99 20.7855L6.63 20.5715L2.88 21.5465L3.885 17.9015L3.646 17.5265C-0.478 10.9615 4.26 2.38147 12.072 2.38147C14.726 2.38147 17.217 3.41647 19.093 5.29147C20.968 7.15047 22.002 9.64147 22.002 12.2815Z" fill="white"/>
</g>
<defs>
<clipPath id="clip0_9069_92">
<rect width="24" height="24" fill="white" transform="translate(0 0.416016)"/>
</clipPath>
</defs>
</svg>
