<svg width="29" height="29" viewBox="0 0 29 29" fill="none" xmlns="http://www.w3.org/2000/svg">
<path d="M8.32745 10.1875H3.63745V24.2948H8.32745V10.1875Z" fill="#B0B0BA"/>
<path d="M6.01701 3.38477C4.41243 3.38477 3.36401 4.43969 3.36401 5.82235C3.36401 7.17598 4.38054 8.25999 5.95494 8.25999H5.98524C7.62056 8.25999 8.63846 7.17598 8.63846 5.82235C8.60811 4.43969 7.62067 3.38477 6.01701 3.38477Z" fill="#B0B0BA"/>
<path d="M19.8413 9.85547C17.3536 9.85547 16.2393 11.2236 15.6153 12.1846V10.1872H10.9265C10.9887 11.5105 10.9265 24.2944 10.9265 24.2944H15.6153V16.4159C15.6153 15.9942 15.6456 15.5727 15.7699 15.2713C16.1083 14.4291 16.8803 13.5567 18.1757 13.5567C19.8717 13.5567 20.5511 14.8508 20.5511 16.7465V24.2944H25.2401V16.2045C25.2401 11.8712 22.9265 9.85547 19.8413 9.85547Z" fill="#B0B0BA"/>
</svg>
