<svg width="31" height="31" viewBox="0 0 31 31" fill="none" xmlns="http://www.w3.org/2000/svg">
<path d="M29.1787 21.666C29.0537 21.666 29.0537 21.666 29.1787 21.666C28.8037 21.416 28.5537 21.416 28.3037 21.291H28.1787C26.9287 20.916 25.8037 20.041 24.9287 18.916C24.4287 18.291 24.0537 17.541 23.8037 16.916C23.6787 16.666 23.8037 16.541 23.6787 16.541C23.6787 16.541 23.6787 16.541 23.8037 16.416C24.0537 16.166 24.4287 15.916 24.8037 15.791C25.4287 15.541 26.0537 15.291 26.6787 14.791C26.8037 14.666 26.9287 14.541 27.0537 14.291C27.1787 13.916 27.1787 13.541 27.0537 13.166C26.5537 12.916 26.1787 12.666 26.0537 12.541C25.6787 12.291 25.0537 12.291 24.5537 12.416C24.4287 12.416 24.3037 12.541 24.1787 12.541C24.0537 12.541 23.9287 12.666 23.8037 12.666H23.6787C23.5537 12.666 23.4287 12.666 23.3037 12.666C23.3037 12.416 23.3037 12.166 23.3037 11.791C23.3037 11.541 23.3037 11.291 23.3037 11.041V10.916C23.3037 9.91602 23.3037 8.91602 23.1787 8.04102V7.91602C22.8037 6.16602 21.6787 4.54102 20.0537 3.29102C18.9287 2.54102 17.6787 2.04102 16.3037 1.91602C15.9287 1.91602 15.5537 1.91602 15.1787 1.91602H14.9287C13.5537 1.91602 11.5537 2.16602 9.80368 3.54102C8.67868 4.41602 7.80368 5.54102 7.30368 6.79102C7.05368 8.29102 7.05368 9.66602 7.17868 10.791V11.416C7.17868 11.916 7.17868 12.291 7.17868 12.666C7.05368 12.666 6.80368 12.666 6.67868 12.541C6.55368 12.541 6.42868 12.541 6.17868 12.541C6.05368 12.541 5.92868 12.416 5.92868 12.416H5.80368C5.30368 12.291 4.80368 12.416 4.55368 12.666C4.55368 12.666 4.55368 12.666 4.42868 12.666C3.92868 13.041 3.67868 13.416 3.67868 13.916C3.67868 13.916 3.67868 14.041 3.67868 14.166C3.67868 14.541 3.92868 14.791 4.17868 15.041C4.30368 15.166 4.42868 15.166 4.42868 15.291L4.55368 15.416C5.05368 15.791 5.67868 15.916 6.17868 16.166L6.55368 16.041C6.92868 16.166 7.05368 16.416 7.05368 16.416C7.17868 16.791 6.80368 17.291 6.80368 17.416C6.17868 18.666 5.30368 19.666 4.17868 20.416C3.55368 20.791 2.92868 21.041 2.30368 21.291H2.17868C1.92868 21.291 1.55368 21.416 1.17868 21.916C1.17868 21.916 1.05368 22.041 1.05368 22.166C0.928677 22.666 1.05368 23.041 1.30368 23.291C1.42868 23.541 1.67868 23.666 1.80368 23.666C2.42868 24.041 3.17868 24.166 3.80368 24.416H3.92868C3.92868 24.416 3.92868 24.416 4.05368 24.416L4.42868 24.541C4.55368 24.541 4.80368 24.666 4.92868 24.666C4.92868 24.791 5.05368 25.041 5.05368 25.166C5.05368 25.416 5.17868 25.541 5.17868 25.791C5.05368 26.291 5.30368 26.541 5.67868 26.666C6.05368 26.791 6.30368 26.666 6.42868 26.666C7.42868 26.541 8.42868 26.416 9.17868 26.541C9.80368 26.666 10.4287 27.166 11.1787 27.541C11.4287 27.666 11.6787 27.791 11.9287 28.041C12.6787 28.541 13.4287 28.916 14.5537 28.916C14.8037 28.916 14.9287 28.916 15.1787 28.916C15.6787 28.916 16.1787 28.916 16.6787 28.791C17.3037 28.791 17.9287 28.541 18.4287 28.166C18.8037 27.916 19.1787 27.666 19.5537 27.416C20.1787 27.041 20.6787 26.666 21.3037 26.416C21.4287 26.416 21.6787 26.291 22.0537 26.291H22.3037C23.0537 26.291 23.9287 26.291 24.6787 26.416H24.9287C25.1787 26.416 25.4287 26.291 25.5537 26.041C25.6787 25.916 25.6787 25.791 25.8037 25.666L25.9287 25.291C26.0537 25.041 26.0537 24.666 26.1787 24.666H26.3037H26.4287C27.1787 24.541 27.8037 24.416 28.3037 24.166L28.5537 24.041H28.6787C28.9287 23.916 29.3037 23.791 29.6787 23.291C29.8037 23.041 29.9287 22.666 29.9287 22.416C29.5537 22.166 29.4287 21.916 29.1787 21.666Z" fill="#B0B0BA"/>
</svg>
