<svg width="31" height="31" viewBox="0 0 31 31" fill="none" xmlns="http://www.w3.org/2000/svg">
<path d="M28.2148 8.90465C27.9047 7.73752 26.9914 6.81824 25.8317 6.50623C23.7299 5.93945 15.3015 5.93945 15.3015 5.93945C15.3015 5.93945 6.87304 5.93945 4.77104 6.50629C3.61142 6.8183 2.69812 7.73752 2.38815 8.90471C1.82495 11.0202 1.82495 15.4343 1.82495 15.4343C1.82495 15.4343 1.82495 19.8484 2.38815 21.9638C2.69812 23.131 3.61142 24.012 4.77104 24.3241C6.87304 24.8908 15.3015 24.8908 15.3015 24.8908C15.3015 24.8908 23.7299 24.8908 25.8317 24.324C26.9914 24.0119 27.9047 23.131 28.2148 21.9638C28.778 19.8483 28.778 15.4342 28.778 15.4342C28.778 15.4342 28.778 11.0202 28.2148 8.90465Z" fill="#B0B0BA"/>
<path d="M12.5437 19.4429V11.4277L19.5882 15.4354L12.5437 19.4429Z" fill="#00040D"/>
</svg>
